{
  "asset": {
    "copyright": "",
    "generator": "VRF - https://vrf.steamdb.info/",
    "version": "2.0"
  },
  "accessors": [
    {
      "bufferView": 0,
      "componentType": 5126,
      "count": 1276,
      "max": [
        156.56051635742188,
        199.7882080078125,
        31.137577056884766
      ],
      "min": [
        -197.10231018066406,
        -180.68385314941406,
        -7.457018852233887
      ],
      "type": "VEC3"
    },
    {
      "bufferView": 1,
      "componentType": 5126,
      "count": 1276,
      "max": [
        0.9602649211883545,
        0.7393109202384949
      ],
      "min": [
        0.01077303383499384,
        0.0021057771518826485
      ],
      "type": "VEC2"
    },
    {
      "bufferView": 2,
      "componentType": 5126,
      "count": 1276,
      "max": [
        0.998566746711731,
        0.9834215641021729,
        1
      ],
      "min": [
        -0.999462902545929,
        -0.9974828362464905,
        -0.9974828362464905
      ],
      "type": "VEC3"
    },
    {
      "bufferView": 3,
      "componentType": 5126,
      "count": 1276,
      "max": [
        0.998073399066925,
        0.9993062615394592,
        0.9864400029182434,
        -1
      ],
      "min": [
        -0.9678224921226501,
        -0.9997313618659973,
        -0.9963046908378601,
        -1
      ],
      "type": "VEC4"
    },
    {
      "bufferView": 4,
      "componentType": 5125,
      "count": 2232,
      "type": "SCALAR"
    }
  ],
  "bufferViews": [
    {
      "buffer": 0,
      "byteLength": 15312,
      "byteOffset": 20416,
      "target": 34962
    },
    {
      "buffer": 0,
      "byteLength": 10208,
      "byteOffset": 51040,
      "target": 34962
    },
    {
      "buffer": 0,
      "byteLength": 15312,
      "byteOffset": 35728,
      "target": 34962
    },
    {
      "buffer": 0,
      "byteLength": 20416,
      "target": 34962
    },
    {
      "buffer": 0,
      "byteLength": 8928,
      "byteOffset": 61248,
      "target": 34963
    }
  ],
  "buffers": [
    {
      "byteLength": 70176,
      "uri": "badside_rocks006.bin"
    }
  ],
  "images": [
    {
      "name": "badside_rocks001_color_psd_5f67f788.vtex",
      "uri": "badside_rocks001_color_psd_5f67f788.png"
    },
    {
      "name": "badside_rocks001_refl_tga_2c516307.vtex",
      "uri": "badside_rocks001_refl_tga_2c516307.png"
    }
  ],
  "materials": [
    {
      "extras": {
        "baseColorTexture": {
          "index": 0
        }
      },
      "name": "badside_rocks001",
      "emissiveTexture": {
        "index": 1
      },
      "pbrMetallicRoughness": {
        "baseColorTexture": {
          "index": 0
        },
        "metallicFactor": 0
      }
    }
  ],
  "meshes": [
    {
      "name": "badside_rocks006.vmdl_c.badside_rocks006_model",
      "primitives": [
        {
          "attributes": {
            "POSITION": 0,
            "TEXCOORD_0": 1,
            "NORMAL": 2,
            "TANGENT": 3
          },
          "indices": 4,
          "material": 0
        }
      ]
    }
  ],
  "nodes": [
    {
      "name": "badside_rocks006.vmdl_c.badside_rocks006_model",
      "matrix": [
        3.027916E-09,
        0,
        0.025399996,
        0,
        0.025399996,
        3.027916E-09,
        0,
        0,
        0,
        0.025399996,
        3.027916E-09,
        0,
        0,
        0,
        0,
        1
      ],
      "mesh": 0
    }
  ],
  "samplers": [
    {
      "magFilter": 9729,
      "minFilter": 9987
    }
  ],
  "scenes": [
    {
      "name": "badside_rocks006.vmdl_c",
      "nodes": [
        0
      ]
    }
  ],
  "textures": [
    {
      "name": "badside_rocks001_color_psd_5f67f788.vtex",
      "sampler": 0,
      "source": 0
    },
    {
      "name": "badside_rocks001_refl_tga_2c516307.vtex",
      "sampler": 0,
      "source": 1
    }
  ]
}